<svg width="94" height="90" fill="none" xmlns="http://www.w3.org/2000/svg"><path d="M71.502 66.86A9.831 9.831 0 0076.084 68a9.792 9.792 0 005.83-1.936 9.854 9.854 0 003.87-9.645l-1.405-8.195a2.365 2.365 0 01.685-2.093l5.954-5.804c5.872-5.627 2.556-15.804-5.453-16.885l-8.228-1.196a2.421 2.421 0 01-1.828-1.319l-3.68-7.455c-3.514-7.295-14.142-7.297-17.658 0l-3.68 7.455a2.421 2.421 0 01-1.828 1.319l-8.228 1.196c-8.006 1.08-11.327 11.256-5.453 16.885l5.954 5.804c.56.545.816 1.328.685 2.093l-1.405 8.195a9.854 9.854 0 003.87 9.645 9.757 9.757 0 0010.412.795l7.36-3.869a2.454 2.454 0 012.284 0l7.36 3.87z" fill="#F98A40"/><g filter="url(#filter0_bdii_128_663)" shape-rendering="crispEdges"><path d="M54.502 71.86A9.831 9.831 0 0059.084 73a9.792 9.792 0 005.83-1.936 9.854 9.854 0 003.87-9.645l-1.405-8.195a2.365 2.365 0 01.685-2.093l5.954-5.804c5.872-5.627 2.556-15.804-5.453-16.885l-8.228-1.196a2.421 2.421 0 01-1.828-1.319l-3.68-7.456c-3.514-7.293-14.142-7.296-17.658 0l-3.68 7.456a2.421 2.421 0 01-1.828 1.319l-8.228 1.196c-8.006 1.08-11.327 11.256-5.453 16.885l5.954 5.804c.56.545.817 1.328.685 2.093l-1.405 8.195a9.854 9.854 0 003.87 9.645 9.757 9.757 0 0010.412.795l7.36-3.869a2.454 2.454 0 012.284 0l7.36 3.87z" fill="#fff" fill-opacity=".03"/><path d="M54.735 71.417l-.233.442.233-.442-7.36-3.87h0a2.954 2.954 0 00-2.75 0l-7.36 3.87.233.442-.232-.442a9.257 9.257 0 01-9.882-.755 9.354 9.354 0 01-3.675-9.159l1.405-8.194h0a2.866 2.866 0 00-.829-2.536l-5.954-5.804h0l-.003-.003c-5.573-5.341-2.415-15.004 5.174-16.029h.005l8.228-1.196h0a2.921 2.921 0 002.204-1.592h0l3.68-7.456h0l.002-.004c3.335-6.92 13.425-6.917 16.758 0l.002.004 3.68 7.455h0a2.922 2.922 0 002.204 1.593l.072-.495-.072.495 8.228 1.195.005.001c7.592 1.025 10.746 10.69 5.174 16.029l-.003.003-5.954 5.803s0 0 0 0a2.866 2.866 0 00-.83 2.537s0 0 0 0l1.406 8.194.493-.084-.493.084a9.354 9.354 0 01-3.674 9.159l.297.402-.297-.402a9.292 9.292 0 01-5.533 1.838 9.332 9.332 0 01-4.35-1.083z" stroke="#fff" stroke-opacity=".03"/></g><defs><filter id="filter0_bdii_128_663" x="0" y="0" width="92" height="90" filterUnits="userSpaceOnUse" color-interpolation-filters="sRGB"><feFlood flood-opacity="0" result="BackgroundImageFix"/><feGaussianBlur in="BackgroundImage" stdDeviation="5"/><feComposite in2="SourceAlpha" operator="in" result="effect1_backgroundBlur_128_663"/><feColorMatrix in="SourceAlpha" values="0 0 0 0 0 0 0 0 0 0 0 0 0 0 0 0 0 0 127 0" result="hardAlpha"/><feOffset dy="2"/><feGaussianBlur stdDeviation="7.5"/><feComposite in2="hardAlpha" operator="out"/><feColorMatrix values="0 0 0 0 0 0 0 0 0 0 0 0 0 0 0 0 0 0 0.2 0"/><feBlend in2="effect1_backgroundBlur_128_663" result="effect2_dropShadow_128_663"/><feBlend in="SourceGraphic" in2="effect2_dropShadow_128_663" result="shape"/><feColorMatrix in="SourceAlpha" values="0 0 0 0 0 0 0 0 0 0 0 0 0 0 0 0 0 0 127 0" result="hardAlpha"/><feOffset dy="4"/><feGaussianBlur stdDeviation="2"/><feComposite in2="hardAlpha" operator="arithmetic" k2="-1" k3="1"/><feColorMatrix values="0 0 0 0 1 0 0 0 0 1 0 0 0 0 1 0 0 0 0.15 0"/><feBlend in2="shape" result="effect3_innerShadow_128_663"/><feColorMatrix in="SourceAlpha" values="0 0 0 0 0 0 0 0 0 0 0 0 0 0 0 0 0 0 127 0" result="hardAlpha"/><feOffset/><feGaussianBlur stdDeviation="34"/><feComposite in2="hardAlpha" operator="arithmetic" k2="-1" k3="1"/><feColorMatrix values="0 0 0 0 1 0 0 0 0 1 0 0 0 0 1 0 0 0 0.05 0"/><feBlend in2="effect3_innerShadow_128_663" result="effect4_innerShadow_128_663"/></filter></defs></svg>