<svg width="94" height="90" fill="none" xmlns="http://www.w3.org/2000/svg"><path fill-rule="evenodd" clip-rule="evenodd" d="M53.688 8.173c-2.101.524-4.016 2.409-4.554 4.483-.142.544-.183 1.521-.183 4.32v3.616l-6.55.002c-5.149.001-6.727.039-7.367.175-2.459.523-4.5 2.662-4.898 5.131-.184 1.144-.18 36.168.004 37.062.345 1.674 1.686 3.484 3.172 4.278 1.519.813-.477.76 28.188.76s26.669.053 28.188-.76c1.485-.794 2.827-2.603 3.172-4.278.18-.878.19-36.24.01-37.2-.332-1.766-1.717-3.617-3.31-4.424-1.409-.714-1.743-.742-8.96-.744l-6.552-.003v-3.616c0-4.01-.063-4.486-.763-5.73-.837-1.489-2.537-2.767-4.133-3.107-.956-.204-14.63-.173-15.464.035zm14.086 9.27v3.148H55.225v-6.296h12.549v3.148z" fill="#EB8744"/><g filter="url(#filter0_bdii_285_900)" shape-rendering="crispEdges"><path fill-rule="evenodd" clip-rule="evenodd" d="M38.688 13.173c-2.101.524-4.016 2.409-4.554 4.483-.142.544-.183 1.521-.183 4.32v3.616l-6.55.002c-5.149.001-6.727.039-7.367.175-2.459.523-4.5 2.662-4.898 5.131-.184 1.144-.18 36.168.004 37.062.345 1.674 1.686 3.484 3.172 4.278 1.519.813-.477.76 28.188.76s26.669.053 28.188-.76c1.485-.794 2.827-2.603 3.172-4.278.18-.877.19-36.24.01-37.2-.332-1.766-1.717-3.617-3.31-4.424-1.409-.714-1.743-.742-8.96-.744l-6.552-.003v-3.616c0-4.01-.063-4.486-.763-5.73-.837-1.489-2.537-2.767-4.133-3.107-.956-.204-14.63-.173-15.464.035zm14.086 9.27v3.148H40.225v-6.296h12.549v3.148z" fill="#fff" fill-opacity=".03"/><path d="M15.136 30.9l.494.08c.364-2.264 2.25-4.242 4.508-4.722.268-.057.776-.1 1.9-.127 1.112-.027 2.788-.037 5.362-.037l6.551-.003h.5v-4.116c0-1.399.01-2.333.038-2.983.028-.656.072-.992.129-1.21.491-1.895 2.265-3.643 4.19-4.124h.001l.054-.008a16.92 16.92 0 01.711-.047c.45-.02 1.052-.037 1.758-.052a293.75 293.75 0 015.043-.05c1.82-.004 3.641.005 5.067.027.713.011 1.324.026 1.786.044.23.009.421.019.566.029a4.84 4.84 0 01.232.022l.016.003h.005c.001 0 0 0 0 0l.105-.488-.104.489c1.448.309 3.03 1.493 3.801 2.863l.436-.245-.435.245c.33.587.491.956.584 1.65.098.735.114 1.819.114 3.835v4.116h.5l6.551.003c3.62 0 5.482.009 6.617.103.56.047.923.113 1.22.202.298.09.55.208.898.385 1.453.736 2.74 2.456 3.044 4.07m-62.242.046l.494.08s0 0 0 0l-.004.039a17.963 17.963 0 00-.022.492c-.01.315-.02.748-.028 1.281-.017 1.067-.031 2.53-.043 4.26-.022 3.456-.033 7.968-.033 12.473 0 4.504.012 9 .036 12.426.011 1.713.026 3.158.043 4.2.009.522.018.942.028 1.244a14.669 14.669 0 00.023.467l-.49.1M15.136 30.9c-.184 1.144-.18 36.168.004 37.062M15.136 30.9c.397-2.469 2.44-4.608 4.898-5.131.64-.136 2.218-.174 7.366-.175l50.46 42.368c-.345 1.674-1.687 3.484-3.172 4.278-.175.094-.303.176-.436.247-1.03.554-2.38.512-27.752.512-25.373 0-26.723.042-27.752-.512-.134-.071-.262-.153-.436-.247-1.486-.794-2.827-2.603-3.172-4.278m0 0l.49-.1c.315 1.53 1.565 3.214 2.917 3.938.126.067.221.122.301.169.203.118.312.181.59.246.419.096 1.159.165 2.802.21 2.859.077 8.318.076 19.26.075a38128.878 38128.878 0 0110 0c10.941.001 16.4.002 19.26-.075 1.643-.044 2.383-.114 2.801-.21.279-.065.387-.128.59-.246.08-.047.175-.102.301-.17 1.352-.723 2.602-2.406 2.918-3.936-.002.005-.001.004 0-.006l.007-.105c.005-.086.01-.206.015-.358.01-.303.019-.725.027-1.25.018-1.051.032-2.507.044-4.233.023-3.452.036-7.983.037-12.518.001-4.534-.009-9.07-.03-12.533a469.85 469.85 0 00-.042-4.252 77.767 77.767 0 00-.027-1.263l-.014-.366a1.444 1.444 0 00-.01-.123v-.002m0 0h.001zm-24.603-4.762h.5v-7.298H39.725v7.296h13.049z" stroke="#fff" stroke-opacity=".03"/></g><defs><filter id="filter0_bdii_285_900" x="0" y="0" width="93" height="90" filterUnits="userSpaceOnUse" color-interpolation-filters="sRGB"><feFlood flood-opacity="0" result="BackgroundImageFix"/><feGaussianBlur in="BackgroundImage" stdDeviation="5"/><feComposite in2="SourceAlpha" operator="in" result="effect1_backgroundBlur_285_900"/><feColorMatrix in="SourceAlpha" values="0 0 0 0 0 0 0 0 0 0 0 0 0 0 0 0 0 0 127 0" result="hardAlpha"/><feOffset dy="2"/><feGaussianBlur stdDeviation="7.5"/><feComposite in2="hardAlpha" operator="out"/><feColorMatrix values="0 0 0 0 0 0 0 0 0 0 0 0 0 0 0 0 0 0 0.2 0"/><feBlend in2="effect1_backgroundBlur_285_900" result="effect2_dropShadow_285_900"/><feBlend in="SourceGraphic" in2="effect2_dropShadow_285_900" result="shape"/><feColorMatrix in="SourceAlpha" values="0 0 0 0 0 0 0 0 0 0 0 0 0 0 0 0 0 0 127 0" result="hardAlpha"/><feOffset dy="4"/><feGaussianBlur stdDeviation="2"/><feComposite in2="hardAlpha" operator="arithmetic" k2="-1" k3="1"/><feColorMatrix values="0 0 0 0 1 0 0 0 0 1 0 0 0 0 1 0 0 0 0.15 0"/><feBlend in2="shape" result="effect3_innerShadow_285_900"/><feColorMatrix in="SourceAlpha" values="0 0 0 0 0 0 0 0 0 0 0 0 0 0 0 0 0 0 127 0" result="hardAlpha"/><feOffset/><feGaussianBlur stdDeviation="34"/><feComposite in2="hardAlpha" operator="arithmetic" k2="-1" k3="1"/><feColorMatrix values="0 0 0 0 1 0 0 0 0 1 0 0 0 0 1 0 0 0 0.05 0"/><feBlend in2="effect3_innerShadow_285_900" result="effect4_innerShadow_285_900"/></filter></defs></svg>