<svg width="86" height="90" fill="none" xmlns="http://www.w3.org/2000/svg"><path fill-rule="evenodd" clip-rule="evenodd" d="M39.807 8.171c-.78.363-1.268 1.146-1.268 2.034 0 .321.742 1.947 2.536 5.556l2.536 5.102h19.767l2.468-4.956c1.358-2.726 2.506-5.192 2.552-5.48.11-.692-.295-1.617-.896-2.048-.348-.248-.623-.322-1.199-.322-.665 0-.838.063-1.565.575-1.568 1.105-2.849 1.503-4.832 1.503-1.96 0-3.531-.491-4.882-1.527-1.028-.788-2.02-.81-2.95-.065-.74.594-1.92 1.162-2.884 1.39-.992.235-3.01.262-4 .053-.867-.183-2.383-.894-3.139-1.472-.654-.5-1.596-.644-2.244-.343zm1.77 17.889c-5.596 6.926-9.673 14.878-10.984 21.422-1.037 5.177-.721 9.191 1.003 12.76 1.784 3.693 4.875 6.36 8.64 7.455l1.04.303h24.44l1.04-.303C72.924 65.902 77 60.04 77 52.965c0-7.83-4.122-17.478-11.38-26.637l-.93-1.174H42.308l-.73.906zm18.07 14.527v3.136h-4.509v13.492h-3.292V43.724h-4.485v-3.136h12.286zm0-1.207v-3.085H47.361v3.085h12.286z" fill="#EA8744"/><g filter="url(#filter0_bdii_285_902)" fill="#fff"><mask id="a"><path fill-rule="evenodd" clip-rule="evenodd" d="M24.807 13.171c-.78.363-1.268 1.146-1.268 2.034 0 .321.742 1.947 2.536 5.556l2.536 5.102h19.767l2.468-4.956c1.358-2.726 2.506-5.192 2.552-5.48.11-.692-.295-1.617-.896-2.048-.348-.248-.623-.322-1.199-.322-.665 0-.838.063-1.565.575-1.568 1.105-2.849 1.503-4.832 1.503-1.96 0-3.531-.491-4.882-1.527-1.028-.788-2.02-.81-2.95-.065-.74.594-1.92 1.162-2.884 1.39-.992.235-3.01.262-4 .053-.867-.183-2.383-.894-3.139-1.472-.654-.5-1.596-.644-2.244-.343zm1.77 17.889c-5.596 6.926-9.673 14.878-10.984 21.422-1.037 5.177-.721 9.191 1.003 12.76 1.784 3.693 4.875 6.36 8.64 7.455l1.04.303h24.44l1.04-.303C57.924 70.902 62 65.04 62 57.965c0-7.83-4.122-17.478-11.38-26.637l-.93-1.174H27.308l-.73.906zm18.07 14.527v3.136h-4.509v13.492h-3.292V48.724h-4.485v-3.136h12.286zm0-1.207v-3.085H32.361v3.085h12.286z"/></mask><path fill-rule="evenodd" clip-rule="evenodd" d="M24.807 13.171c-.78.363-1.268 1.146-1.268 2.034 0 .321.742 1.947 2.536 5.556l2.536 5.102h19.767l2.468-4.956c1.358-2.726 2.506-5.192 2.552-5.48.11-.692-.295-1.617-.896-2.048-.348-.248-.623-.322-1.199-.322-.665 0-.838.063-1.565.575-1.568 1.105-2.849 1.503-4.832 1.503-1.96 0-3.531-.491-4.882-1.527-1.028-.788-2.02-.81-2.95-.065-.74.594-1.92 1.162-2.884 1.39-.992.235-3.01.262-4 .053-.867-.183-2.383-.894-3.139-1.472-.654-.5-1.596-.644-2.244-.343zm1.77 17.889c-5.596 6.926-9.673 14.878-10.984 21.422-1.037 5.177-.721 9.191 1.003 12.76 1.784 3.693 4.875 6.36 8.64 7.455l1.04.303h24.44l1.04-.303C57.924 70.902 62 65.04 62 57.965c0-7.83-4.122-17.478-11.38-26.637l-.93-1.174H27.308l-.73.906zm18.07 14.527v3.136h-4.509v13.492h-3.292V48.724h-4.485v-3.136h12.286zm0-1.207v-3.085H32.361v3.085h12.286z" fill-opacity=".03" shape-rendering="crispEdges"/><path d="M24.807 13.171l-.421-.906.421.906zm1.268 7.59l.895-.445-.895.445zm2.536 5.102l-.896.445.276.555h.62v-1zm19.767 0v1h.619l.276-.554-.895-.446zm2.468-4.956l-.895-.446.895.446zm2.552-5.48l.988.158-.988-.158zm-.896-2.048l.582-.813-.582.813zm-2.764.253l.576.817-.576-.817zm-9.714-.024l-.608.793.608-.793zm-2.95-.065l.626.78-.626-.78zm-2.884 1.39l-.23-.973.23.973zm-4 .053l-.207.978.206-.978zm-3.139-1.472l.608-.794-.608.794zM15.593 52.482l-.98-.196.98.196zM26.577 31.06l.778.628-.778-.628zm-9.981 34.18l.9-.435-.9.435zm8.64 7.456l.28-.96-.28.96zm1.04.303l-.279.96.137.04h.142v-1zm24.44 0v1h.142l.137-.04-.28-.96zm1.04-.303l-.28-.96.28.96zm-1.136-41.37l-.784.622.784-.621zm-.93-1.173l.784-.62-.3-.38h-.484v1zm-22.382 0v-1h-.477l-.3.372.777.628zm17.34 18.569v1h1v-1h-1zm0-3.136h1v-1h-1v1zm-4.51 3.136v-1h-1v1h1zm0 13.492v1h1v-1h-1zm-3.292 0h-1v1h1v-1zm0-13.492h1v-1h-1v1zm-4.485 0h-1v1h1v-1zm0-3.136v-1h-1v1h1zm12.286-4.292h1v-1h-1v1zm0 3.085v1h1v-1h-1zm-12.286-3.085v-1h-1v1h1zm0 3.085h-1v1h1v-1zm-7.822-29.175c0-.515.276-.935.69-1.127l-.843-1.813c-1.148.533-1.847 1.678-1.847 2.94h2zm2.431 5.111a146.3 146.3 0 01-1.926-3.981 18.87 18.87 0 01-.428-.993 3.09 3.09 0 01-.081-.232c-.02-.068.004-.014.004.095h-2c0 .19.046.364.074.46.035.12.082.254.136.395.109.282.267.65.475 1.105.417.914 1.058 2.235 1.955 4.041l1.791-.89zm2.536 5.102l-2.536-5.102-1.79.89 2.535 5.102 1.791-.89zm8.988-.555h-9.883v2h9.883v-2zm9.884 0h-9.884v2h9.884v-2zm1.573-4.402l-2.468 4.956 1.79.892 2.468-4.956-1.79-.892zm2.46-5.191c.013-.085.032-.113-.014.006-.031.082-.08.199-.145.35-.13.302-.315.712-.545 1.205a157.25 157.25 0 01-1.756 3.63l1.79.892a162.612 162.612 0 001.78-3.678c.233-.5.428-.93.568-1.258.07-.163.13-.307.176-.426.031-.081.096-.25.12-.406l-1.974-.315zm-.492-1.078c.125.09.275.27.382.514.108.248.127.456.11.564l1.975.314c.093-.584-.036-1.184-.253-1.68-.218-.498-.572-.996-1.049-1.338l-1.165 1.626zm-.616-.136c.254 0 .365.018.425.034a.555.555 0 01.191.102l1.165-1.626a2.535 2.535 0 00-.836-.407 3.597 3.597 0 00-.945-.103v2zm-.989.393c.375-.264.498-.33.575-.358.042-.016.102-.034.414-.034v-2c-.353 0-.712.012-1.104.157-.359.131-.685.353-1.037.6l1.152 1.635zm-5.408 1.686c1.06 0 1.982-.106 2.869-.382.888-.277 1.694-.708 2.54-1.304l-1.152-1.635c-.724.51-1.343.83-1.982 1.029-.641.2-1.351.292-2.275.292v2zm-5.49-1.734c1.55 1.19 3.345 1.734 5.49 1.734v-2c-1.775 0-3.123-.439-4.273-1.32l-1.217 1.587zm-1.716-.078c.32-.257.578-.328.79-.323.223.005.528.097.926.402l1.217-1.588c-.631-.483-1.336-.796-2.099-.813-.773-.017-1.476.274-2.085.762l1.25 1.56zm-3.28 1.583c1.103-.26 2.418-.892 3.28-1.583l-1.251-1.56c-.62.496-1.662 1.001-2.489 1.197l.46 1.946zm-4.437.058c.602.127 1.439.172 2.22.162.78-.01 1.617-.078 2.218-.22l-.461-1.946c-.392.093-1.06.156-1.784.166-.724.01-1.391-.037-1.78-.119l-.413 1.957zm-3.54-1.655c.457.349 1.096.706 1.711.995.612.287 1.287.546 1.829.66l.412-1.957c-.324-.068-.84-.255-1.392-.514-.548-.257-1.046-.545-1.344-.773l-1.215 1.589zm-1.214-.23c.252-.118.801-.087 1.215.23l1.215-1.589c-.895-.684-2.23-.94-3.273-.456l.843 1.814zm-8.655 38.6c1.27-6.342 5.254-14.15 10.78-20.99L25.8 30.43c-5.664 7.011-9.835 15.108-11.186 21.855l1.96.393zm.922 12.127c-1.602-3.315-1.93-7.094-.922-12.127l-1.962-.393c-1.065 5.32-.763 9.57 1.083 13.39l1.801-.87zm8.02 6.931c-3.48-1.013-6.352-3.48-8.02-6.93l-1.8.87c1.9 3.934 5.21 6.801 9.26 7.98l.56-1.92zm1.04.303l-1.04-.303-.56 1.92 1.041.303.559-1.92zm11.94-.04h-12.22v2h12.22v-2zm12.22 0h-12.22v2h12.22v-2zm.76-.263l-1.04.303.559 1.92 1.04-.303-.559-1.92zM61 57.965c0 6.692-3.84 12.117-9.524 13.772l.559 1.92C58.687 71.721 63 65.423 63 57.965h-2zM49.836 31.949C57.02 41.015 61 50.449 61 57.965h2c0-8.142-4.264-18.006-11.596-27.258l-1.568 1.242zm-.93-1.174l.93 1.174 1.568-1.242-.93-1.174-1.568 1.242zm-10.407.38H49.69v-2H38.5v2zm-11.19 0h11.19v-2H27.31v2zm.046.533l.731-.905-1.555-1.257-.732.905 1.556 1.257zm18.292 17.035v-3.136h-2v3.136h2zm-5.509 1h4.51v-2h-4.51v2zm1 12.492V48.724h-2v13.492h2zm-4.292 1h3.292v-2h-3.292v2zm-1-14.492v13.492h2V48.724h-2zm-3.485 1h4.485v-2h-4.485v2zm-1-4.136v3.136h2v-3.136h-2zm13.286-1H32.361v2h12.286v-2zm-1-3.292v3.085h2v-3.085h-2zm-11.286 1h12.286v-2H32.361v2zm1 2.085v-3.085h-2v3.085h2zm11.286-1H32.361v2h12.286v-2z" fill-opacity=".03" mask="url(#a)"/></g><defs><filter id="filter0_bdii_285_902" x="0" y="0" width="77" height="90" filterUnits="userSpaceOnUse" color-interpolation-filters="sRGB"><feFlood flood-opacity="0" result="BackgroundImageFix"/><feGaussianBlur in="BackgroundImage" stdDeviation="5"/><feComposite in2="SourceAlpha" operator="in" result="effect1_backgroundBlur_285_902"/><feColorMatrix in="SourceAlpha" values="0 0 0 0 0 0 0 0 0 0 0 0 0 0 0 0 0 0 127 0" result="hardAlpha"/><feOffset dy="2"/><feGaussianBlur stdDeviation="7.5"/><feComposite in2="hardAlpha" operator="out"/><feColorMatrix values="0 0 0 0 0 0 0 0 0 0 0 0 0 0 0 0 0 0 0.2 0"/><feBlend in2="effect1_backgroundBlur_285_902" result="effect2_dropShadow_285_902"/><feBlend in="SourceGraphic" in2="effect2_dropShadow_285_902" result="shape"/><feColorMatrix in="SourceAlpha" values="0 0 0 0 0 0 0 0 0 0 0 0 0 0 0 0 0 0 127 0" result="hardAlpha"/><feOffset dy="4"/><feGaussianBlur stdDeviation="2"/><feComposite in2="hardAlpha" operator="arithmetic" k2="-1" k3="1"/><feColorMatrix values="0 0 0 0 1 0 0 0 0 1 0 0 0 0 1 0 0 0 0.15 0"/><feBlend in2="shape" result="effect3_innerShadow_285_902"/><feColorMatrix in="SourceAlpha" values="0 0 0 0 0 0 0 0 0 0 0 0 0 0 0 0 0 0 127 0" result="hardAlpha"/><feOffset/><feGaussianBlur stdDeviation="34"/><feComposite in2="hardAlpha" operator="arithmetic" k2="-1" k3="1"/><feColorMatrix values="0 0 0 0 1 0 0 0 0 1 0 0 0 0 1 0 0 0 0.05 0"/><feBlend in2="effect3_innerShadow_285_902" result="effect4_innerShadow_285_902"/></filter></defs></svg>