<svg width="95" height="90" fill="none" xmlns="http://www.w3.org/2000/svg"><path fill-rule="evenodd" clip-rule="evenodd" d="M46.551 8.04c-6.191.394-11.61 3.873-14.473 9.294-2.56 4.846-2.764 10.84-.56 16.438 1.036 2.633 3.178 6.221 5.364 8.99 3.517 4.452 8.592 9.519 17.549 17.52a173.412 173.412 0 015.56 5.222L62.501 68l2.51-2.496a173.412 173.412 0 015.56-5.222c8.957-8.001 14.032-13.068 17.549-17.52 2.186-2.769 4.328-6.357 5.365-8.99 3.545-9.006.716-18.528-6.89-23.194-5.183-3.18-11.895-3.427-17.688-.654-2.102 1.006-4.558 2.8-5.827 4.255l-.579.664-.579-.664c-.318-.366-1.019-1.03-1.557-1.477-4.066-3.38-8.808-4.98-13.814-4.662z" fill="#ED8844"/><g filter="url(#filter0_bdii_285_904)" shape-rendering="crispEdges"><path fill-rule="evenodd" clip-rule="evenodd" d="M31.551 13.04c-6.191.394-11.61 3.873-14.473 9.294-2.56 4.846-2.764 10.84-.56 16.438 1.036 2.633 3.178 6.221 5.364 8.99 3.517 4.452 8.592 9.519 17.549 17.52a173.412 173.412 0 015.56 5.222L47.501 73l2.51-2.496a173.412 173.412 0 015.56-5.222c8.957-8.001 14.032-13.068 17.549-17.52 2.186-2.769 4.328-6.357 5.365-8.99 3.545-9.006.716-18.528-6.89-23.194-5.183-3.18-11.895-3.427-17.688-.654-2.102 1.006-4.558 2.8-5.827 4.255l-.579.664-.579-.664c-.318-.366-1.019-1.03-1.557-1.477-4.066-3.38-8.808-4.98-13.814-4.662z" fill="#fff" fill-opacity=".03"/><path d="M16.983 38.589l-.465.183.465-.183c-2.156-5.477-1.947-11.317.537-16.021 2.781-5.265 8.043-8.646 14.063-9.03 4.87-.31 9.489 1.245 13.463 4.548.525.437 1.204 1.083 1.5 1.421h0l.578.664.377.433.377-.433.579-.664h0c1.215-1.394 3.613-3.15 5.666-4.133 5.65-2.704 12.182-2.454 17.21.63 7.376 4.524 10.154 13.776 6.686 22.585l.466.183-.466-.183c-1.015 2.577-3.128 6.124-5.291 8.863-3.49 4.416-8.536 9.459-17.49 17.457a173.849 173.849 0 00-5.58 5.24l-2.157 2.146-2.157-2.146a173.841 173.841 0 00-5.58-5.24c-8.954-7.998-14-13.04-17.49-17.457-2.163-2.74-4.276-6.286-5.291-8.863z" stroke="#fff" stroke-opacity=".03"/></g><defs><filter id="filter0_bdii_285_904" x="0" y="0" width="95" height="90" filterUnits="userSpaceOnUse" color-interpolation-filters="sRGB"><feFlood flood-opacity="0" result="BackgroundImageFix"/><feGaussianBlur in="BackgroundImage" stdDeviation="5"/><feComposite in2="SourceAlpha" operator="in" result="effect1_backgroundBlur_285_904"/><feColorMatrix in="SourceAlpha" values="0 0 0 0 0 0 0 0 0 0 0 0 0 0 0 0 0 0 127 0" result="hardAlpha"/><feOffset dy="2"/><feGaussianBlur stdDeviation="7.5"/><feComposite in2="hardAlpha" operator="out"/><feColorMatrix values="0 0 0 0 0 0 0 0 0 0 0 0 0 0 0 0 0 0 0.2 0"/><feBlend in2="effect1_backgroundBlur_285_904" result="effect2_dropShadow_285_904"/><feBlend in="SourceGraphic" in2="effect2_dropShadow_285_904" result="shape"/><feColorMatrix in="SourceAlpha" values="0 0 0 0 0 0 0 0 0 0 0 0 0 0 0 0 0 0 127 0" result="hardAlpha"/><feOffset dy="4"/><feGaussianBlur stdDeviation="2"/><feComposite in2="hardAlpha" operator="arithmetic" k2="-1" k3="1"/><feColorMatrix values="0 0 0 0 1 0 0 0 0 1 0 0 0 0 1 0 0 0 0.15 0"/><feBlend in2="shape" result="effect3_innerShadow_285_904"/><feColorMatrix in="SourceAlpha" values="0 0 0 0 0 0 0 0 0 0 0 0 0 0 0 0 0 0 127 0" result="hardAlpha"/><feOffset/><feGaussianBlur stdDeviation="34"/><feComposite in2="hardAlpha" operator="arithmetic" k2="-1" k3="1"/><feColorMatrix values="0 0 0 0 1 0 0 0 0 1 0 0 0 0 1 0 0 0 0.05 0"/><feBlend in2="effect3_innerShadow_285_904" result="effect4_innerShadow_285_904"/></filter></defs></svg>