<svg width="97" height="86" fill="none" xmlns="http://www.w3.org/2000/svg"><path fill-rule="evenodd" clip-rule="evenodd" d="M59.662 9.02c-9.543.892-17.627 6.271-22.184 14.76l-.441.821-2.133.038c-2.049.037-2.158.048-2.778.294-1.774.704-2.98 2.226-3.247 4.103-.075.524-.1 2.57-.079 6.687l.03 5.932.243.674c.608 1.678 1.892 2.878 3.54 3.308.495.129 1.048.15 3.394.126 1.542-.015 2.826-.05 2.853-.078.028-.028-.115-.573-.318-1.212-.773-2.443-1.124-4.803-1.124-7.564 0-3.303.517-6.123 1.663-9.063 3.061-7.857 9.905-13.633 18.094-15.27 1.674-.335 2.773-.432 4.834-.428 3.264.006 5.772.471 8.71 1.615 8.615 3.353 14.647 11.32 15.606 20.614.143 1.382.061 4.947-.142 6.234-.84 5.304-3.185 9.97-6.897 13.72-3.166 3.197-6.875 5.343-11.245 6.505l-1.252.334-.302-.258c-.589-.502-.681-.515-3.882-.519-2.943-.004-2.978-.002-3.403.22-.632.328-.977.875-1.024 1.622-.042.675.137 1.148.607 1.599.55.528.711.55 3.834.55 3.122 0 3.283-.022 3.833-.55.281-.27.625-.87.625-1.091 0-.083.199-.174.54-.248.99-.214 3.048-.867 4.1-1.3 6.447-2.662 11.769-8.028 14.32-14.439l.367-.925 2.327-.053c2.52-.058 2.815-.109 3.735-.648 1.074-.63 1.846-1.574 2.29-2.801l.244-.674v-6.36c0-5.908-.012-6.398-.173-6.924-.503-1.65-1.567-2.82-3.124-3.438-.62-.246-.729-.257-2.775-.294l-2.13-.038-.545-1.01c-1.277-2.369-2.826-4.455-4.769-6.426-4.223-4.284-9.554-7.005-15.533-7.93-.953-.146-1.838-.202-3.567-.225-1.265-.016-2.49-.012-2.722.01zm.376 6.921c-.13.023-.615.089-1.08.147-3.433.433-7.194 2.085-10.084 4.43-4.096 3.324-6.743 8.017-7.574 13.43-.225 1.47-.225 4.461 0 5.947.56 3.678 2 7.127 4.125 9.871l.476.614-.308.905c-.448 1.319-1.589 3.625-2.27 4.588-1.11 1.573-2.724 2.982-4.142 3.616-1.075.48-1.236 1.35-.337 1.82.562.295 4.36.174 6.543-.206 3.596-.628 6.73-1.913 9.008-3.692.49-.383.751-.528.892-.495.109.025.776.197 1.481.38 1.717.448 3.231.635 5.147.635 1.883 0 3.443-.187 5.115-.614 7.33-1.87 13.146-7.702 15.009-15.051.51-2.017.657-3.195.657-5.31.001-1.974-.096-2.922-.47-4.63-1.687-7.666-7.583-13.835-15.091-15.785-1.726-.448-2.669-.566-4.798-.604-1.136-.02-2.17-.018-2.3.004zm-4.69 19.44c.99.663 1.107 2.115.233 2.89a1.792 1.792 0 01-3-1.368c.013-1.428 1.602-2.3 2.767-1.521zm7.062-.222c.441.124.994.605 1.161 1.01.163.393.163 1.087 0 1.479-.19.462-.816.985-1.27 1.063-.622.106-1.114-.026-1.538-.412-.453-.414-.631-.806-.631-1.39 0-.795.451-1.447 1.186-1.711.443-.16.635-.167 1.092-.039zm7.841.146a1.814 1.814 0 01.23 3.11c-.915.654-2.197.297-2.664-.742-.541-1.205.327-2.568 1.659-2.606.157-.005.506.103.775.238z" fill="#F98A40"/><g filter="url(#filter0_bdii_285_1007)" shape-rendering="crispEdges"><path fill-rule="evenodd" clip-rule="evenodd" d="M45.87 13.635c-9.544.893-17.628 6.271-22.185 14.76l-.441.821-2.133.038c-2.049.037-2.158.048-2.778.294-1.774.704-2.98 2.227-3.248 4.103-.075.524-.099 2.571-.078 6.687l.03 5.932.243.674c.608 1.678 1.892 2.878 3.54 3.308.495.13 1.048.15 3.394.127 1.542-.016 2.826-.051 2.853-.079.027-.028-.115-.573-.318-1.211-.773-2.444-1.124-4.804-1.124-7.564 0-3.304.517-6.124 1.663-9.064 3.061-7.857 9.905-13.633 18.094-15.27 1.674-.334 2.773-.432 4.834-.428 3.264.006 5.771.471 8.71 1.615C65.54 21.732 71.573 29.7 72.532 38.993c.142 1.381.061 4.946-.142 6.233-.84 5.305-3.185 9.97-6.897 13.72-3.166 3.198-6.875 5.343-11.245 6.506l-1.252.333-.302-.258c-.589-.502-.681-.514-3.883-.519-2.942-.004-2.977-.001-3.402.22-.632.329-.977.875-1.024 1.623-.042.675.137 1.147.607 1.598.55.528.711.55 3.834.55 3.122 0 3.283-.022 3.833-.55.281-.27.625-.87.625-1.091 0-.083.199-.174.54-.248.99-.213 3.048-.867 4.1-1.3 6.447-2.661 11.769-8.027 14.32-14.439l.367-.925 2.327-.053c2.52-.057 2.815-.108 3.735-.648 1.073-.629 1.846-1.574 2.29-2.801l.244-.674v-6.36c0-5.908-.012-6.399-.173-6.925-.503-1.65-1.567-2.82-3.124-3.438-.62-.245-.729-.257-2.775-.294l-2.13-.038-.545-1.01c-1.277-2.369-2.826-4.455-4.769-6.426-4.223-4.284-9.554-7.005-15.533-7.929-.953-.147-1.838-.203-3.567-.226-1.265-.016-2.49-.012-2.722.01zm.375 6.922c-.13.022-.615.088-1.08.147-3.433.432-7.194 2.085-10.084 4.43-4.097 3.323-6.743 8.017-7.574 13.428-.225 1.47-.225 4.463 0 5.949.56 3.678 2 7.127 4.125 9.87l.476.615-.308.904c-.448 1.319-1.589 3.625-2.27 4.589-1.11 1.573-2.724 2.98-4.142 3.615-1.075.48-1.236 1.35-.338 1.82.563.295 4.36.175 6.543-.206 3.597-.628 6.732-1.912 9.009-3.692.49-.382.751-.528.892-.495.109.026.776.197 1.481.38 1.717.449 3.231.635 5.147.635 1.883 0 3.443-.187 5.115-.614 7.33-1.87 13.146-7.702 15.009-15.051.51-2.017.657-3.195.657-5.309 0-1.975-.096-2.923-.471-4.63-1.686-7.667-7.583-13.835-15.09-15.785-1.726-.449-2.669-.567-4.798-.605-1.136-.02-2.17-.018-2.3.005zm-4.69 19.44c.99.662 1.106 2.114.233 2.89a1.792 1.792 0 01-3-1.37c.013-1.427 1.602-2.3 2.767-1.52zm7.062-.222c.441.123.994.604 1.161 1.01.163.392.163 1.087 0 1.478-.19.462-.816.985-1.27 1.063-.622.106-1.115-.026-1.538-.412-.453-.413-.632-.806-.632-1.39 0-.794.452-1.446 1.187-1.711.443-.16.635-.167 1.092-.038zm7.841.145a1.814 1.814 0 01.23 3.11c-.916.654-2.198.297-2.665-.742-.54-1.205.327-2.568 1.66-2.606.157-.004.506.103.775.238z" fill="#fff" fill-opacity=".03"/><path d="M24.125 28.631h0l-.44.822-.14.258-.293.005-2.132.038c-1.036.019-1.548.03-1.881.066-.297.031-.432.078-.722.193l5.608-1.382zm0 0c4.478-8.341 12.415-13.621 21.79-14.498M24.126 28.63l21.79-14.498M24.453 49.837c-.05-.175-.11-.38-.18-.597-.79-2.496-1.147-4.907-1.147-7.715 0-3.363.528-6.245 1.697-9.245 3.122-8.014 10.104-13.908 18.462-15.579 1.713-.342 2.845-.442 4.933-.438 3.323.007 5.892.482 8.89 1.65C65.9 21.334 72.051 29.462 73.03 38.94l-.497.052.497-.052c.075.724.09 1.988.061 3.215-.028 1.226-.1 2.468-.207 3.148l-.493-.078.493.078c-.854 5.406-3.247 10.169-7.035 13.994-3.229 3.26-7.016 5.452-11.471 6.637l-1.252.333-.254.067-.2-.17-.301-.257h0a1.615 1.615 0 00-.307-.227 1.196 1.196 0 00-.397-.104c-.455-.061-1.234-.067-2.855-.069-1.483-.002-2.204-.002-2.613.025-.2.012-.295.03-.354.047a1.04 1.04 0 00-.205.091c-.466.243-.718.627-.755 1.211-.018.285.013.498.08.674.067.176.18.347.374.532l-.346.361.346-.36c.134.128.206.187.284.229.073.04.18.079.393.11.455.065 1.23.072 2.81.072 1.582 0 2.356-.007 2.81-.073.214-.03.322-.07.394-.11.078-.04.15-.1.284-.229.093-.09.222-.262.33-.451.052-.091.093-.174.118-.239a.584.584 0 00.023-.066.589.589 0 01.204-.41.924.924 0 01.23-.146c.14-.064.314-.114.5-.154h0c.957-.207 2.987-.85 4.014-1.275 6.324-2.61 11.547-7.876 14.047-14.16l.368-.926.122-.308.33-.007 2.328-.053c1.273-.029 1.934-.056 2.393-.136.42-.073.664-.187 1.1-.443.968-.567 1.666-1.417 2.073-2.54l.214-.592v-6.27c0-2.958-.003-4.55-.026-5.47-.023-.92-.066-1.116-.125-1.31l.478-.146-.478.146c-.46-1.51-1.42-2.56-2.83-3.119-.29-.115-.424-.162-.721-.193-.333-.035-.845-.047-1.879-.066l-2.13-.038-.291-.005-.14-.257-.545-1.011.44-.238-.44.238c-1.254-2.325-2.774-4.374-4.685-6.312l.329-.323-.329.323c-4.147-4.207-9.38-6.878-15.253-7.786-.919-.142-1.776-.197-3.498-.22L24.452 49.837zm0 0a120.469 120.469 0 01-2.243.042c-2.378.023-2.848-.003-3.263-.11-1.48-.387-2.641-1.463-3.196-2.995 0 0 0 0 0 0l-.214-.593-.029-5.845c-.01-2.058-.01-3.595.003-4.682.013-1.104.039-1.71.07-1.932h0c.243-1.698 1.328-3.07 2.937-3.709l5.935 19.823zm17.155 11.207a.755.755 0 00-.382.017 1.41 1.41 0 00-.289.125c-.18.1-.392.251-.642.446-2.197 1.718-5.25 2.976-8.786 3.593l.085.493-.085-.493c-1.061.185-2.531.31-3.81.35-.638.02-1.218.019-1.67-.004a6.005 6.005 0 01-.55-.05c-.138-.02-.192-.039-.197-.04h.001c-.328-.17-.32-.322-.311-.371.02-.105.155-.34.622-.55l-.205-.456.204.456c1.518-.678 3.197-2.154 4.347-3.783.713-1.01 1.873-3.36 2.334-4.716l.308-.904.086-.255-.164-.212-.476-.615-.395.306-3.63-15.743s0 0 0 0c.812-5.294 3.398-9.874 7.394-13.116 2.823-2.291 6.498-3.902 9.832-4.322.46-.058.959-.126 1.102-.15h.014a25.896 25.896 0 01.674-.01c.413-.002.952.002 1.517.012 2.097.037 3 .152 4.681.589l.126-.484-.126.484c7.323 1.902 13.082 7.922 14.728 15.408.366 1.668.46 2.58.46 4.523-.001 2.073-.142 3.21-.643 5.186-1.818 7.172-7.495 12.864-14.648 14.69-1.628.415-3.146.598-4.991.598-1.877 0-3.348-.182-5.02-.618h0c-.701-.183-1.377-.356-1.495-.384zm0 0l-.113.487.113-.487s0 0 0 0zm4.309-46.911c.198-.019 1.389-.024 2.668-.008l-2.668.008zM42.12 43.26h0c1.128-1.002.963-2.842-.287-3.679l-.278.416.278-.416c-1.515-1.013-3.528.13-3.546 1.932-.02 2.023 2.32 3.091 3.833 1.747zm8.12-2.666h0l-1.623-.82.135-.48s0 0 0 0a2.26 2.26 0 00-.704-.108 2.24 2.24 0 00-.693.157c-.938.337-1.517 1.181-1.517 2.182 0 .344.053.662.191.965.137.301.343.555.604.793.55.502 1.203.665 1.96.536.349-.06.7-.27.97-.497.273-.229.54-.537.678-.868.114-.277.16-.62.159-.93 0-.31-.045-.653-.16-.93zm6.443-1.12h0a3.345 3.345 0 00-.508-.203 1.69 1.69 0 00-.507-.089h0c-1.68.048-2.791 1.773-2.1 3.31.593 1.321 2.232 1.787 3.411.945 1.43-1.021 1.275-3.172-.296-3.963z" stroke="#fff" stroke-opacity=".03"/></g><defs><filter id="filter0_bdii_285_1007" x="0" y=".615" width="96.207" height="85.385" filterUnits="userSpaceOnUse" color-interpolation-filters="sRGB"><feFlood flood-opacity="0" result="BackgroundImageFix"/><feGaussianBlur in="BackgroundImage" stdDeviation="5"/><feComposite in2="SourceAlpha" operator="in" result="effect1_backgroundBlur_285_1007"/><feColorMatrix in="SourceAlpha" values="0 0 0 0 0 0 0 0 0 0 0 0 0 0 0 0 0 0 127 0" result="hardAlpha"/><feOffset dy="2"/><feGaussianBlur stdDeviation="7.5"/><feComposite in2="hardAlpha" operator="out"/><feColorMatrix values="0 0 0 0 0 0 0 0 0 0 0 0 0 0 0 0 0 0 0.2 0"/><feBlend in2="effect1_backgroundBlur_285_1007" result="effect2_dropShadow_285_1007"/><feBlend in="SourceGraphic" in2="effect2_dropShadow_285_1007" result="shape"/><feColorMatrix in="SourceAlpha" values="0 0 0 0 0 0 0 0 0 0 0 0 0 0 0 0 0 0 127 0" result="hardAlpha"/><feOffset dy="4"/><feGaussianBlur stdDeviation="2"/><feComposite in2="hardAlpha" operator="arithmetic" k2="-1" k3="1"/><feColorMatrix values="0 0 0 0 1 0 0 0 0 1 0 0 0 0 1 0 0 0 0.15 0"/><feBlend in2="shape" result="effect3_innerShadow_285_1007"/><feColorMatrix in="SourceAlpha" values="0 0 0 0 0 0 0 0 0 0 0 0 0 0 0 0 0 0 127 0" result="hardAlpha"/><feOffset/><feGaussianBlur stdDeviation="34"/><feComposite in2="hardAlpha" operator="arithmetic" k2="-1" k3="1"/><feColorMatrix values="0 0 0 0 1 0 0 0 0 1 0 0 0 0 1 0 0 0 0.05 0"/><feBlend in2="effect3_innerShadow_285_1007" result="effect4_innerShadow_285_1007"/></filter></defs></svg>