<svg width="92" height="90" fill="none" xmlns="http://www.w3.org/2000/svg"><path fill-rule="evenodd" clip-rule="evenodd" d="M52.74 8.166c-2.52.541-4.628 2.53-5.335 5.034-.151.535-.213 1.37-.258 3.487l-.06 2.784h-6.18c-6.72 0-6.573-.013-7.937.683-.696.355-1.68 1.305-2.133 2.056-.803 1.336-.837 1.662-.837 8.066V36l2.55.002c2.974.002 3.741.123 5.128.81 3.308 1.635 4.965 5.257 4.047 8.846-.556 2.175-2.008 3.958-3.999 4.914-.607.292-1.367.59-1.69.663-.322.074-1.812.164-3.31.201L30 51.505v5.703c0 6.229.014 6.379.692 7.724.44.87 1.507 1.937 2.377 2.377 1.345.678 1.495.692 7.724.692h5.703l.069-2.725c.037-1.5.127-2.99.2-3.312.074-.322.372-1.082.664-1.69.956-1.99 2.74-3.442 4.914-3.998 1.098-.28 2.719-.303 3.787-.05 2.162.509 4.036 2.026 5.06 4.097.686 1.387.807 2.154.81 5.129V68h5.723c5.237 0 5.793-.019 6.566-.222 1.938-.509 3.322-1.84 4.02-3.864.203-.594.22-1.08.22-6.82v-6.181l2.783-.06c2.118-.045 2.952-.107 3.487-.258 3.629-1.025 5.825-4.703 5.04-8.442-.502-2.393-2.364-4.45-4.747-5.241-.668-.222-1.115-.262-3.633-.32l-2.872-.066-.06-6.388c-.052-5.647-.082-6.446-.258-6.886-.663-1.656-1.866-2.86-3.522-3.522-.44-.176-1.24-.206-6.886-.259l-6.388-.059-.066-2.872c-.058-2.518-.098-2.965-.32-3.633-1.161-3.494-4.726-5.52-8.347-4.741z" fill="#E84"/><g filter="url(#filter0_bdii_285_998)"><path fill-rule="evenodd" clip-rule="evenodd" d="M37.74 13.166c-2.52.541-4.628 2.53-5.335 5.034-.151.535-.213 1.37-.258 3.487l-.06 2.784h-6.18c-6.72 0-6.573-.013-7.937.683-.696.355-1.68 1.305-2.133 2.056-.803 1.336-.837 1.662-.837 8.066V41l2.55.002c2.974.002 3.741.123 5.128.81 3.308 1.635 4.965 5.257 4.047 8.846-.556 2.175-2.008 3.958-3.999 4.914-.607.292-1.367.59-1.69.663-.322.074-1.812.164-3.31.201L15 56.505v5.703c0 6.229.014 6.379.692 7.724.44.87 1.507 1.937 2.377 2.377 1.345.678 1.495.692 7.724.692h5.704l.067-2.725c.038-1.5.128-2.99.202-3.312.073-.322.371-1.082.663-1.69.956-1.99 2.74-3.442 4.914-3.998 1.098-.28 2.719-.303 3.787-.05 2.162.509 4.036 2.026 5.06 4.097.686 1.387.807 2.154.81 5.129V73h5.723c5.237 0 5.794-.019 6.566-.222 1.938-.509 3.322-1.84 4.02-3.864.203-.594.22-1.08.22-6.82v-6.181l2.783-.06c2.118-.045 2.952-.107 3.487-.258 3.629-1.025 5.825-4.703 5.04-8.442-.502-2.393-2.364-4.45-4.747-5.241-.668-.222-1.115-.262-3.633-.32l-2.872-.066-.06-6.388c-.052-5.647-.082-6.446-.258-6.886-.663-1.656-1.866-2.86-3.522-3.522-.44-.176-1.24-.206-6.886-.259l-6.388-.059-.066-2.872c-.058-2.518-.098-2.965-.32-3.633-1.161-3.494-4.726-5.52-8.347-4.741z" fill="#fff" fill-opacity=".03" shape-rendering="crispEdges"/></g><defs><filter id="filter0_bdii_285_998" x="0" y="0" width="89.999" height="90" filterUnits="userSpaceOnUse" color-interpolation-filters="sRGB"><feFlood flood-opacity="0" result="BackgroundImageFix"/><feGaussianBlur in="BackgroundImage" stdDeviation="5"/><feComposite in2="SourceAlpha" operator="in" result="effect1_backgroundBlur_285_998"/><feColorMatrix in="SourceAlpha" values="0 0 0 0 0 0 0 0 0 0 0 0 0 0 0 0 0 0 127 0" result="hardAlpha"/><feOffset dy="2"/><feGaussianBlur stdDeviation="7.5"/><feComposite in2="hardAlpha" operator="out"/><feColorMatrix values="0 0 0 0 0 0 0 0 0 0 0 0 0 0 0 0 0 0 0.2 0"/><feBlend in2="effect1_backgroundBlur_285_998" result="effect2_dropShadow_285_998"/><feBlend in="SourceGraphic" in2="effect2_dropShadow_285_998" result="shape"/><feColorMatrix in="SourceAlpha" values="0 0 0 0 0 0 0 0 0 0 0 0 0 0 0 0 0 0 127 0" result="hardAlpha"/><feOffset dy="4"/><feGaussianBlur stdDeviation="2"/><feComposite in2="hardAlpha" operator="arithmetic" k2="-1" k3="1"/><feColorMatrix values="0 0 0 0 1 0 0 0 0 1 0 0 0 0 1 0 0 0 0.15 0"/><feBlend in2="shape" result="effect3_innerShadow_285_998"/><feColorMatrix in="SourceAlpha" values="0 0 0 0 0 0 0 0 0 0 0 0 0 0 0 0 0 0 127 0" result="hardAlpha"/><feOffset/><feGaussianBlur stdDeviation="34"/><feComposite in2="hardAlpha" operator="arithmetic" k2="-1" k3="1"/><feColorMatrix values="0 0 0 0 1 0 0 0 0 1 0 0 0 0 1 0 0 0 0.05 0"/><feBlend in2="effect3_innerShadow_285_998" result="effect4_innerShadow_285_998"/></filter></defs></svg>