<svg width="251" height="123" fill="none" xmlns="http://www.w3.org/2000/svg"><path d="M45.391 94.362a.94.94 0 00-.05.1 33.957 33.957 0 013.412.063c1.376.102 2.402.185 3.116.268.082.013.165.018.248.016.182.016.265.098.28.232a.532.532 0 01-.098.38.447.447 0 01-.3.2 39.912 39.912 0 00-3.775-.035c-1.068.034-2.133.14-3.186.319-.048.465-.1 1.01-.131 1.656a99.261 99.261 0 00-.134 5.255 4.93 4.93 0 011.128-.679 4.255 4.255 0 011.689-.366 3.245 3.245 0 011.912.579 4.64 4.64 0 011.31 1.559c.338.669.578 1.384.713 2.122.134.771.162 1.556.083 2.335a7.483 7.483 0 01-.615 2.32 4.188 4.188 0 01-1.342 1.707 3.322 3.322 0 01-2.103.663 1.015 1.015 0 01-.994-.682 1.021 1.021 0 01-.067-.481c.016-.146.067-.213.15-.213a2.82 2.82 0 001.772-.513c.455-.342.81-.8 1.026-1.326a6.153 6.153 0 00.398-1.806 9.08 9.08 0 00-.529-3.661c-.414-1.112-.978-1.759-1.673-1.941a3.2 3.2 0 00-1.574.3 3.02 3.02 0 00-1.274.978c.019 2.23.067 4.257.185 6.012.117 1.756.264 2.868.477 3.215.051.067.02.118-.082.15a1.01 1.01 0 01-.395 0 1.04 1.04 0 01-.517-.197.981.981 0 01-.414-.466c-.197-.548-.363-2.501-.513-5.85-.15-3.065-.15-6.525-.032-10.339a3.629 3.629 0 00-1.956 1.227c-.048.05-.099 0-.182-.13a1.672 1.672 0 01.43-2.155 4.658 4.658 0 011.874-.637c.031-.075.07-.146.115-.213a.928.928 0 01.513-.383 1.32 1.32 0 01.58 0c.15.029.291.091.414.182.111.102.143.184.111.236zm16.171 12.491a.22.22 0 01-.134.082 4.204 4.204 0 00-1.912.848 4.843 4.843 0 00-.58.446c0 .679 0 1.326.032 1.937.05 3.187.05 5.685.02 7.459-.033 1.775-.202 3.03-.466 3.728-.265.698-.73 1.058-1.377 1.058-.529 0-.994-.446-1.408-1.325a9.28 9.28 0 01-.726-3.362 13.94 13.94 0 01.446-4.292 11.397 11.397 0 012.07-4.209v-.318c0-.249 0-.995-.015-2.231a12.1 12.1 0 01-.249 1.109 4.5 4.5 0 01-.398.93.725.725 0 01-.58.38c-.4.017-.793-.106-1.112-.348a2.004 2.004 0 01-.637-1.242 9.679 9.679 0 01-.166-2.518.597.597 0 01.38-.481.961.961 0 01.681-.083.552.552 0 01.363.564v.364c0 .611 0 1.175.032 1.688.001.429.046.856.134 1.275.083.319.198.497.383.497.184 0 .363-.201.512-.615.158-.46.285-.931.38-1.408.117-.513.2-.978.267-1.374v-.414a.525.525 0 01.363-.465c.22-.114.472-.149.714-.099.23.048.347.249.347.564v.778c0 .414 0 .812.016 1.191v.813a3.17 3.17 0 01.383-.281 4.73 4.73 0 012.07-.895.49.49 0 01.147.032.186.186 0 01.051.134.14.14 0 01-.032.083zm-4.06 13.404a55.93 55.93 0 00.115-3.278c.016-1.275 0-2.502-.016-3.712-.016-1.211-.05-2.123-.067-2.785a5.1 5.1 0 00-.016-.58 13.503 13.503 0 00-1.593 9.81c.319 1.275.727 1.912 1.208 1.912.168-.006.286-.456.37-1.367zm10.884-13.653a.152.152 0 01.052.118 3.504 3.504 0 01-.367 1.641 2.259 2.259 0 01-1.807 1.192 3.09 3.09 0 01-2.252-.663 3.728 3.728 0 01-.596-.637c-.292.437-.526.91-.695 1.408-.035.083-.082.134-.165.134a.099.099 0 01-.067-.016c-.051-.019-.083-.035-.099-.083a.18.18 0 01-.02-.133 8.58 8.58 0 01.83-1.641 4.844 4.844 0 01-.463-1.259 7.15 7.15 0 01-.181-1.689c0-.149.114-.299.363-.414.22-.112.47-.154.714-.118.229.035.347.217.347.532-.003.561.041 1.12.134 1.673a6.555 6.555 0 012.185-1.873.192.192 0 01.134 0 .149.149 0 01.1.098.195.195 0 010 .134.15.15 0 01-.099.099 6.755 6.755 0 00-2.231 1.988c.104.415.272.812.497 1.176.497.698 1.042.994 1.657.895a1.914 1.914 0 001.392-.978c.225-.452.334-.952.319-1.456a.235.235 0 01.05-.134.193.193 0 01.135-.048.325.325 0 01.133.054zm2.834 2.604a.714.714 0 01-.348.58 1.28 1.28 0 01-.695.296c-.232.019-.35-.064-.35-.28-.016-.166-.016-.529-.016-1.109s-.016-1.179-.016-1.823v-1.542l.032-.197c.05-.233.248-.351.564-.351.91 0 1.593 0 2.039-.016a.736.736 0 01.58.347c.154.205.256.445.296.698.016.233-.083.348-.296.348-.214 0-.6.031-1.112.031-.233.019-.446.019-.663.019l-.016 2.999zm10.488-2.652a.22.22 0 01.048.131 4.5 4.5 0 01-.147 1.211 1.827 1.827 0 01-.532.86 1.475 1.475 0 01-1.01.319 2.367 2.367 0 01-.745-.131.897.897 0 01-.53-.58 4.764 4.764 0 01-.18-1.061.607.607 0 00-.036.115 5.493 5.493 0 01-.197.78c-.069.23-.177.445-.319.638a.675.675 0 01-.564.248 1.553 1.553 0 01-1.392-.612 2.616 2.616 0 01-.43-1.542c0-.777.15-1.341.465-1.724a1.656 1.656 0 011.373-.56.863.863 0 01.58.213c.166.156.317.328.45.513v-.264a.52.52 0 01.362-.481 1.08 1.08 0 01.714-.083c.23.051.347.248.347.564v1.459c0 .233.016.513.032.828.007.287.052.571.134.845.067.248.182.382.319.382a.64.64 0 00.548-.318c.14-.237.24-.496.296-.765a5.03 5.03 0 00.083-.829.206.206 0 01.05-.13.181.181 0 01.131-.051.217.217 0 01.15.025zm-3.282.067c.051-.185.1-.318.118-.449v-.363a2.232 2.232 0 01-.165-.201 3.138 3.138 0 00-.367-.446.666.666 0 00-.446-.198c-.217 0-.366.182-.45.529a6.615 6.615 0 00-.13 1.425c-.011.441.039.882.15 1.309.099.347.23.529.395.529.166 0 .35-.147.465-.446.109-.326.197-.658.265-.994l.099-.398c.019-.115.05-.214.066-.297zm7.552-1.691c.168-.109.364-.167.564-.166a.724.724 0 01.414.134.517.517 0 01.182.446c0 1.823 0 2.966.066 3.412.016.498.115.746.32.746a.687.687 0 00.596-.379c.14-.224.242-.471.298-.73.091-.419.14-.846.147-1.274a.16.16 0 01.016-.076.16.16 0 01.05-.058.17.17 0 01.055-.038.176.176 0 01.064-.013.15.15 0 01.115.051.187.187 0 01.05.134c-.004.462-.06.923-.165 1.373-.102.39-.289.753-.548 1.061a1.22 1.22 0 01-.994.449 1.346 1.346 0 01-.797-.283 1.41 1.41 0 01-.513-.912 7.556 7.556 0 01-.15-1.309c-.016-.296-.016-.663-.032-1.093a4.577 4.577 0 00-.165.564c-.099.414-.182.844-.249 1.259-.067.363-.134.694-.197.978-.052.21-.136.411-.249.596a.845.845 0 01-.58.28.815.815 0 01-.433-.115 1.24 1.24 0 01-.347-.264.387.387 0 01-.13-.217c0-.016.015-.032.03-.048.393-.273.698-.654.88-1.096.28-.56.561-1.16.81-1.771.184-.446.35-.845.497-1.16.146-.316.267-.446.366-.465 0 0 0-.016.029-.016zm14.038 1.672a.199.199 0 01.048.134c.003.437-.053.872-.165 1.294a2.203 2.203 0 01-.695 1.175c-.25.241-.58.383-.927.399-.638 0-1.045-.166-1.243-.516-.198-.351-.3-1.042-.3-2.135v-.781a4.89 4.89 0 00-.082-.761c-.048-.233-.13-.348-.249-.348-.118 0-.296.249-.414.73a21.926 21.926 0 00-.347 1.638c-.032.216-.067.414-.1.599a7.126 7.126 0 01-.216 1.109c-.083.318-.248.465-.462.465a1.476 1.476 0 01-.764-.15c-.147-.083-.265-.319-.32-.698-.053-.379-.101-.975-.149-1.803v-.284c-.016-.213-.016-.43-.035-.678a3.275 3.275 0 00-.083-.638c-.047-.181-.114-.28-.213-.28-.217 0-.398.233-.513.71a12.318 12.318 0 00-.319 1.594 14.442 14.442 0 01-.3 1.539c-.117.449-.28.681-.48.681a.763.763 0 01-.679-.299c-.15-.182-.233-.596-.284-1.243a55.827 55.827 0 01-.13-2.899v-.319c0-.181.13-.318.382-.43.214-.11.46-.14.695-.083.232.048.347.233.347.545-.016.15-.016.284-.032.414-.149 1.957-.166 2.935-.05 2.935.034 0 .066-.067.098-.217s.05-.319.083-.529c.06-.446.142-.888.248-1.325a4.63 4.63 0 01.481-1.259.995.995 0 01.896-.548c.296-.021.593.036.86.166a1.042 1.042 0 01.382.729c.064.55.092 1.104.083 1.657v.663a8.492 8.492 0 000 .911 5.99 5.99 0 00.099-.43c.05-.217.099-.449.15-.698v-.082c.083-.447.165-.912.283-1.358.093-.391.244-.765.446-1.112a.872.872 0 01.778-.446c.297-.021.595.036.863.166a1.03 1.03 0 01.38.729c.063.55.09 1.104.082 1.657v.198a9.338 9.338 0 00.051 1.526c.032.319.166.478.383.478a.745.745 0 00.596-.363c.16-.246.283-.514.363-.797.1-.389.15-.79.15-1.191a.19.19 0 01.011-.073.174.174 0 01.04-.061.19.19 0 01.13-.048.194.194 0 01.143.041zm6.446-.047a.135.135 0 01.036.052c.008.02.012.041.012.062 0 .271-.044.54-.131.797a2.05 2.05 0 01-.398.71 2.378 2.378 0 01-1.36.829 3.39 3.39 0 01-1.539 0 2.31 2.31 0 01-1.211-.679 1.933 1.933 0 01-.497-1.408 1.68 1.68 0 01.662-1.392 2.442 2.442 0 011.574-.529c.337-.023.668.084.928.299a.806.806 0 01.264.711 1.08 1.08 0 01-.545.697 2.26 2.26 0 01-.745.249c-.22.029-.441.045-.663.048h-.035c-.032.678.118 1.16.433 1.424a1.438 1.438 0 001.291.233 2.254 2.254 0 001.179-.695c.28-.373.431-.827.43-1.294a.214.214 0 01.048-.13.177.177 0 01.133-.051c.05.011.095.034.134.067zm-2.122-.596c-.051-.134-.201-.217-.414-.268a.96.96 0 00-.637.15 1.098 1.098 0 00-.415.797h.099c.367.006.731-.073 1.061-.233.255-.166.357-.306.306-.446zm10.505.828a.161.161 0 01-.099.099c-.149.048-.299.083-.449.131a37.01 37.01 0 00-1.873.615 6.398 6.398 0 01-.23 1.408 1.72 1.72 0 01-.615.911 1.982 1.982 0 01-1.207.319.863.863 0 01-.797-.497c-.181-.319-.051-.714.367-1.16.302-.262.629-.496.975-.698a14.24 14.24 0 000-1.274 9.474 9.474 0 00-.115-1.128c-.067-.319-.15-.462-.249-.462-.2 0-.382.264-.564.812-.195.608-.35 1.227-.465 1.855a37.089 37.089 0 00-.347 1.838l-.032.284c0 1.622-.035 2.816-.035 3.594 0 .637 0 1.44-.016 2.37a.378.378 0 01-.264.364.718.718 0 01-.513.051.414.414 0 01-.284-.415c-.016-.347-.016-.697-.032-1.061-.099-2.469-.15-5.751-.15-9.826a.595.595 0 01.383-.462c.218-.097.462-.121.694-.067.217.067.319.249.351.564v.032a61.567 61.567 0 00-.102 2.453c.111-.504.249-1.002.414-1.491.129-.415.325-.807.58-1.16a.955.955 0 01.812-.465 1.015 1.015 0 01.845.414c.229.324.393.69.481 1.077.104.468.149.946.134 1.425a36.179 36.179 0 011.755-.58c.15-.048.3-.083.446-.131.051-.019.083 0 .134.016a.127.127 0 01.083.099c.008.024.01.05.007.075a.165.165 0 01-.023.071zm-4.142 2.651c.071-.283.12-.572.147-.863a.694.694 0 01.019-.198 4.49 4.49 0 00-.682.513c-.265.265-.363.481-.296.663a.343.343 0 00.347.264.467.467 0 00.465-.379zm11.381-2.95a.226.226 0 01.051.133c0 1.011-.149 1.756-.433 2.231-.284.475-.675.784-1.093.752a1.487 1.487 0 01-.663-.185 1.163 1.163 0 01-.462-.347 2.664 2.664 0 01-.449-1.342 3.212 3.212 0 01-.363.956.883.883 0 01-.781.379 1.742 1.742 0 01-1.109-.347 2.009 2.009 0 01-.637-1.243 9.791 9.791 0 01-.165-2.517.61.61 0 01.382-.481c.214-.11.46-.139.694-.083.217.067.319.249.348.564v.363c0 .612.019 1.176.035 1.689a6.07 6.07 0 00.13 1.275c.083.318.201.497.383.497.264 0 .465-.185.612-.548.145-.418.235-.853.267-1.294.048-.497.064-.956.064-1.389a.536.536 0 01.366-.481c.22-.111.472-.14.711-.083.232.067.35.248.35.564 0 1.638.083 2.715.23 3.231.03.107.081.208.15.296a.263.263 0 00.165.083.435.435 0 00.265-.099c.11-.104.2-.227.267-.363a3.51 3.51 0 00.281-.829c.071-.41.104-.826.098-1.242a.224.224 0 01.051-.134.194.194 0 01.131-.051.231.231 0 01.124.045zm3.977 1.841a.887.887 0 01-.532.3c-.048.955-.364 1.44-.956 1.44a.873.873 0 01-.829-.363 1.622 1.622 0 01-.232-.861.125.125 0 01.009-.066.14.14 0 01.042-.052.244.244 0 01.099-.031c.047 0 .093.017.13.047a.165.165 0 01.067.15c.013.184.058.364.134.532a.474.474 0 00.497.319c.398 0 .637-.363.695-1.093a2.378 2.378 0 01-.762-.131 1.188 1.188 0 01-.637-.532 2.105 2.105 0 01-.265-1.176c-.025-.43.067-.859.265-1.242.158-.282.403-.506.698-.637a2.37 2.37 0 01.911-.182.962.962 0 01.694.299.417.417 0 01.15-.133c.168-.11.364-.167.564-.166a.722.722 0 01.414.134.526.526 0 01.182.446c0 1.822 0 2.966.067 3.412.016.497.115.746.319.746a.681.681 0 00.595-.379c.142-.224.243-.471.297-.73.093-.418.143-.846.149-1.274a.157.157 0 01.016-.077.14.14 0 01.051-.057.151.151 0 01.115-.051.156.156 0 01.118.051c.032.037.05.085.048.134a6.053 6.053 0 01-.166 1.373c-.099.39-.285.753-.545 1.061a1.236 1.236 0 01-.994.449 1.335 1.335 0 01-.796-.283 1.405 1.405 0 01-.513-.912 7.666 7.666 0 01-.099-.465zm-.067-.844a57.065 57.065 0 01-.032-1.973.27.27 0 01-.035-.082.516.516 0 00-.414-.281.455.455 0 00-.446.249 1.537 1.537 0 00-.166.637c0 .249-.035.513-.035.762-.015.389.019.779.102 1.159a.405.405 0 00.414.348.5.5 0 00.513-.319c.046-.128.079-.261.099-.395v-.105zm21.125-6.911c.068-3.187.233-5.176.497-5.968.064-.189.173-.358.318-.494a.922.922 0 01.399-.217c.098-.02.2-.014.296.016a.097.097 0 01.067.108.094.094 0 01-.016.042c-.317.595-.499 1.804-.548 3.63a65.668 65.668 0 00.051 4.97c.099.016.217.016.319.032a.9.9 0 01.544.382c.154.191.252.42.284.663.016.213-.083.318-.319.318-.235 0-.513-.051-.761-.083.13 2.103.296 3.977.513 5.599.217 1.707.43 2.733.663 3.084.051.064 0 .131-.083.213a1.064 1.064 0 01-.978.182.907.907 0 01-.513-.363 1.9 1.9 0 01-.3-.896c-.229-2.883-.379-5.518-.43-7.901a17.366 17.366 0 00-4.821.264c-.051 4.461-.248 7.191-.596 8.233a1.04 1.04 0 01-.398.481c-.155.099-.33.162-.513.182-.182.019-.319.035-.414.035-.616 0-1.213-.564-1.791-1.692a8.114 8.114 0 01-.879-3.76 4.235 4.235 0 01.847-2.469 5.52 5.52 0 012.501-1.889 92.518 92.518 0 00-.299-5.866c-.147-1.705-.347-2.75-.564-3.097-.048-.067 0-.134.086-.217.13-.089.276-.15.43-.182a1.1 1.1 0 01.564.016c.208.07.388.203.513.383.173.271.26.589.249.91.181 2.735.264 5.303.264 7.673a16.885 16.885 0 014.805-.299 70.93 70.93 0 01.013-2.023zm-6.338 10.817c.099-.86.166-1.912.214-3.164.048-1.252.067-2.485.067-3.728a6.486 6.486 0 00-2.138 1.192 2.297 2.297 0 00-.762 1.79 8.376 8.376 0 00.762 3.505c.513 1.144.994 1.708 1.459 1.708.159.007.29-.424.398-1.303zm17.49-4.836a.22.22 0 01.047.13 4.38 4.38 0 01-.149 1.211c-.091.331-.275.63-.529.86a1.472 1.472 0 01-1.01.319 2.342 2.342 0 01-.746-.131.901.901 0 01-.532-.58 4.95 4.95 0 01-.182-1.061 1.148 1.148 0 00-.031.115 5.525 5.525 0 01-.201.781 2.082 2.082 0 01-.319.637.67.67 0 01-.564.248c-.637 0-1.112-.197-1.392-.611a2.62 2.62 0 01-.43-1.542c0-.778.149-1.342.462-1.724a1.677 1.677 0 011.376-.561.859.859 0 01.58.214c.166.155.316.326.446.513v-.265a.523.523 0 01.367-.481c.22-.108.471-.137.71-.083.233.051.351.249.351.564v1.459c0 .233.015.513.031.829.007.286.052.57.134.844.064.249.182.382.319.382a.64.64 0 00.545-.318c.142-.236.243-.495.299-.765a5.34 5.34 0 00.083-.828.215.215 0 01.048-.131.191.191 0 01.134-.051.21.21 0 01.153.026zm-3.282.067a3.9 3.9 0 00.114-.45v-.363c-.047-.051-.098-.118-.165-.201a2.985 2.985 0 00-.363-.446.671.671 0 00-.447-.197c-.216 0-.366.181-.449.529a6.543 6.543 0 00-.13 1.424c-.011.441.038.882.146 1.309.102.348.233.529.398.529.166 0 .348-.146.466-.446.108-.325.196-.657.264-.994l.099-.398c.016-.115.051-.214.067-.296zm7.538-1.692c.168-.11.364-.167.564-.166a.735.735 0 01.415.134.513.513 0 01.181.446c0 1.823.016 2.966.067 3.413 0 .497.115.745.319.745a.684.684 0 00.596-.379c.141-.224.242-.471.296-.73.093-.418.144-.845.15-1.274a.142.142 0 01.015-.076.139.139 0 01.052-.058.158.158 0 01.051-.038.155.155 0 01.063-.013.16.16 0 01.118.051.19.19 0 01.048.134 6.053 6.053 0 01-.166 1.373c-.099.39-.285.753-.545 1.061a1.224 1.224 0 01-.994.449 1.338 1.338 0 01-.796-.283 1.405 1.405 0 01-.513-.912 7.203 7.203 0 01-.15-1.309c0-.296 0-.663-.032-1.093a4.097 4.097 0 00-.166.564c-.098.414-.181.844-.248 1.259-.067.363-.134.694-.201.978a2.15 2.15 0 01-.248.596.84.84 0 01-.58.28.8.8 0 01-.43-.115 1.197 1.197 0 01-.348-.264.403.403 0 01-.134-.217c0-.016.016-.032.036-.048.39-.274.694-.654.876-1.096.283-.56.564-1.159.812-1.771.182-.446.348-.845.497-1.16.15-.315.265-.446.367-.465.012 0 .012-.016.028-.016zm9.48 1.774a.196.196 0 010 .131c-.13.357-.374.661-.695.864-.341.198-.72.322-1.112.363a1.912 1.912 0 01-.478.729 1.202 1.202 0 01-.797.281 2.083 2.083 0 01-1.175-.281 1.226 1.226 0 01-.513-.713 3.476 3.476 0 01-.134-.956.33.33 0 01.033-.151.325.325 0 01.101-.117 1.305 1.305 0 01-.067-.726c.181-.848.729-1.227 1.641-1.16a1.59 1.59 0 011.357.956c.25.556.302 1.181.15 1.771a1.59 1.59 0 001.357-.956.133.133 0 01.028-.06.122.122 0 01.055-.038.156.156 0 01.134 0c.048-.003.095.012.115.063zm-2.072-.066a2.123 2.123 0 00-.347-.956.82.82 0 00-.694-.399.55.55 0 00-.482.233 1.121 1.121 0 00-.216.497 1.788 1.788 0 000 .714c.061.269.221.506.449.662.366.216.783.326 1.208.319a2.58 2.58 0 00.079-1.07h.003zm-.528 1.854a1.25 1.25 0 00.296-.43 4.137 4.137 0 01-1.389-.249c.019.211.087.415.197.596a.502.502 0 00.465.249.568.568 0 00.427-.166h.004zm5.429.714a.712.712 0 01-.347.58 1.28 1.28 0 01-.695.296c-.233.019-.347-.064-.347-.28-.019-.166-.019-.529-.019-1.109s-.016-1.179-.016-1.823v-1.542l.032-.197c.051-.233.248-.351.564-.351.911 0 1.593 0 2.039-.016a.745.745 0 01.333.102.742.742 0 01.247.245c.154.205.255.445.296.698.019.233-.08.348-.296.348-.217 0-.596.031-1.112.031-.23.019-.446.019-.663.019l-.016 2.999zm10.553-2.718a.237.237 0 01.048.133c0 1.01-.15 1.756-.431 2.231-.28.475-.678.777-1.092.745a1.466 1.466 0 01-.663-.184 1.143 1.143 0 01-.465-.348 2.638 2.638 0 01-.446-1.341 3.221 3.221 0 01-.367.956.886.886 0 01-.777.379 1.732 1.732 0 01-1.109-.347 1.987 1.987 0 01-.637-1.243 9.66 9.66 0 01-.166-2.517.61.61 0 01.379-.481c.215-.11.463-.14.698-.083.213.067.319.248.347.564v.363c0 .612 0 1.176.032 1.689.001.428.046.855.134 1.274.083.319.197.497.382.497.265 0 .462-.184.612-.548.146-.417.235-.852.264-1.293.047-.462.069-.926.067-1.39a.529.529 0 01.364-.481c.22-.111.473-.14.713-.082.233.066.348.248.348.563 0 1.638.082 2.715.232 3.231a.81.81 0 00.15.297.263.263 0 00.166.083.441.441 0 00.264-.099c.11-.104.2-.227.265-.363.13-.263.225-.542.283-.829.071-.41.105-.826.099-1.243a.21.21 0 01.051-.133.182.182 0 01.131-.051.23.23 0 01.124.051zm20.392 5.732a.8.8 0 01-.217.347 1.656 1.656 0 01-.561.351c-.303.123-.629.18-.955.165-.638 0-1.425-.318-2.336-.978a23.104 23.104 0 01-2.833-2.402 48.239 48.239 0 01-2.717-2.884c.047 1.523.114 2.817.232 3.878.118 1.061.23 1.724.379 1.972.035.067 0 .131-.098.214a1.072 1.072 0 01-.447.165.978.978 0 01-.579-.032.814.814 0 01-.497-.398 1.766 1.766 0 01-.217-.911c0-2.403.032-4.525.051-6.347a15.903 15.903 0 01-1.275-1.804c-.047-.082-.032-.2.035-.382.054-.194.138-.379.249-.548.075-.154.184-.289.319-.395.114-.083.197-.083.28.032.118.181.248.398.398.637.115-4.824.347-7.59.73-8.335.085-.199.222-.37.398-.497.155-.1.33-.161.513-.182a.995.995 0 01.414.032c.099.051.131.099.099.166-.347.58-.596 1.806-.761 3.645-.166 1.838-.249 3.877-.265 6.098a19.056 19.056 0 004.598-4.419c1.274-1.7 1.937-3.207 1.988-4.525 0-.165.099-.232.265-.2.208.062.397.177.548.334.198.222.349.48.446.762.095.342.084.706-.032 1.042-.351.994-1.241 2.237-2.67 3.728a25.596 25.596 0 01-5.041 4.065 44.523 44.523 0 003.017 3.763 18.437 18.437 0 003.429 3.065c1.144.778 2.154.995 3.049.679.038-.016.064.032.064.099zm7.296-5.666a.218.218 0 01.051.131 4.5 4.5 0 01-.149 1.211 1.828 1.828 0 01-.533.86 1.474 1.474 0 01-1.01.319 2.364 2.364 0 01-.745-.131.897.897 0 01-.529-.58 4.781 4.781 0 01-.182-1.061.638.638 0 00-.035.115 5.09 5.09 0 01-.197.78c-.067.23-.175.446-.319.638a.67.67 0 01-.564.248 1.554 1.554 0 01-1.392-.612 2.616 2.616 0 01-.43-1.542c0-.777.149-1.341.465-1.724a1.662 1.662 0 011.373-.56.863.863 0 01.58.213c.166.156.317.328.449.513v-.264a.521.521 0 01.363-.481c.222-.108.474-.138.714-.083.233.051.347.248.347.564v1.459c0 .233 0 .513.032.828.008.286.053.57.134.845.067.248.182.382.319.382a.638.638 0 00.548-.318c.14-.237.24-.496.296-.765a5.02 5.02 0 00.083-.829.202.202 0 01.051-.13.174.174 0 01.131-.051.215.215 0 01.149.025zm-3.281.067a4.29 4.29 0 00.117-.449v-.363c-.051-.051-.098-.118-.165-.201a3.142 3.142 0 00-.367-.446.663.663 0 00-.446-.198c-.216 0-.366.182-.446.529a6.618 6.618 0 00-.134 1.425c-.01.441.041.881.15 1.309.099.347.233.529.395.529.163 0 .351-.147.465-.446.109-.326.197-.658.265-.994l.102-.398c.016-.115.048-.214.064-.297zm6.48 3.461c-1.758 0-1.542-3.843 1.077-3.247-.2-.73-.713-1.358-1.657-1.358-.2 0-.117-1.424.975-1.424 2.024 0 2.769 6.029-.395 6.029zm1.16-2.868c-1.593-.596-2.055 2.434-1.211 2.469.896.003 1.377-1.322 1.211-2.466v-.003zm10.735-.427a.145.145 0 01-.099.099c-.15.048-.3.083-.449.131-.612.185-1.224.382-1.871.615a6.46 6.46 0 01-.232 1.408c-.1.362-.314.682-.612.911a2.002 2.002 0 01-1.211.319.871.871 0 01-.797-.497c-.181-.319-.047-.714.367-1.16.303-.263.631-.497.978-.698v-1.274a9.275 9.275 0 00-.118-1.128c-.064-.319-.146-.462-.248-.462-.198 0-.379.264-.561.812a13.639 13.639 0 00-.465 1.855c-.15.694-.265 1.309-.348 1.838l-.035.284c0 1.622-.031 2.816-.031 3.594v2.37a.38.38 0 01-.268.364.718.718 0 01-.513.051.414.414 0 01-.281-.415c0-.347 0-.697-.035-1.061-.098-2.469-.146-5.751-.146-9.826a.583.583 0 01.379-.462c.219-.097.464-.121.698-.067.213.067.318.249.347.564v.032a56.412 56.412 0 00-.099 2.453c.11-.504.248-1.002.415-1.491a3.87 3.87 0 01.579-1.16.964.964 0 01.81-.465 1.018 1.018 0 01.847.414c.227.325.39.691.478 1.077.106.467.151.946.134 1.425.615-.214 1.192-.415 1.756-.58.149-.048.299-.083.449-.131.048-.019.083 0 .131.016.047.016.066.048.082.099a.154.154 0 01.001.077.162.162 0 01-.032.069zm-4.143 2.651c.073-.283.123-.572.15-.863a.82.82 0 010-.198c-.242.148-.47.32-.678.513-.265.265-.367.481-.3.663a.342.342 0 00.347.264.47.47 0 00.481-.379zm12.793-2.32c.007.464-.049.925-.165 1.374-.217.812-.73 1.51-1.543 1.51-.564 0-1.143-.335-1.309-1.195a13.14 13.14 0 01-.182-2.335c0 .031-.032.047-.051.082a2.809 2.809 0 01-.561.596c.105.198.167.415.182.637.115 1.16-.781 2.336-2.039 2.285-1.491 0-1.724-.876-1.724-1.373-.032-.383-.048-2.32-.048-3.298 0-.596 1.441-.956 1.441 0 0 .217-.016 3.164-.016 3.186.016.516.067.813.232.813.564 0 .762-.956.727-1.491a2.462 2.462 0 00-.032-.364c-1.061-.098-.714-1.341.099-1.242.301.11.586.26.847.446a2.034 2.034 0 00.943-1.358v-.051c0-.595 1.424-.955 1.424 0 0 1.823 0 2.852.067 3.413.067.561.099.746.319.746.462 0 .777-.663.895-1.109a6.08 6.08 0 00.147-1.275.184.184 0 01.046-.125.185.185 0 01.12-.06.188.188 0 01.168.117.175.175 0 01.013.071zM15.297 29.242c-.186.155-.403.27-.637.335a2.021 2.021 0 01-.876.05 1.501 1.501 0 01-.854-.516 2.724 2.724 0 01-.555-1.392c-.385-2.66-.748-5.496-1.057-8.466a29.178 29.178 0 00-4.079.207 179.216 179.216 0 01-2.527 7.536c-.152.47-.418.896-.774 1.24-.263.217-.59.343-.93.36a1.715 1.715 0 01-.85-.208 1.457 1.457 0 01-.568-.465c-.13-.153-.13-.284-.054-.36.338-.284.828-1.109 1.472-2.505.643-1.395 1.341-3.122 2.09-5.158-1.73.437-2.966 1.236-3.766 2.4-.08.076-.156.025-.258-.182a1.93 1.93 0 01-.258-.851 2.462 2.462 0 01.153-1.189c.174-.484.49-.906.905-1.21.928-.672 2.27-1.06 4.024-1.163A136.604 136.604 0 009.176 7.123c.905-3.406 1.214-5.703.956-6.914a.148.148 0 01.01-.139.146.146 0 01.12-.068.857.857 0 01.466.102c.194.12.36.278.49.465.17.262.268.564.284.876v.029c-.05.153-.025 1.574.077 4.282.102 2.709.541 6.787 1.316 12.207l1.593.156c.284.025.414.153.44.319a.822.822 0 01-.157.592.679.679 0 01-.462.319 18.637 18.637 0 00-1.213-.051c.44 2.549.85 4.725 1.274 6.452.424 1.727.749 2.813 1.032 3.148.077.096.026.213-.105.344zM11.155 17.81c-.335-3.435-.618-6.634-.8-9.559-.618 2.657-1.469 5.805-2.549 9.393 1.065.035 2.202.086 3.362.166h-.013zm10.932 26.293c.36.672.411 1.274.153 1.755-.49-.414-1.29-.697-2.45-.85a34.467 34.467 0 00-3.824-.207c-1.24 0-2.479.025-3.715.076-.414 2.428-.637 5.653-.672 9.677-.035 4.024.05 7.768.283 11.203a8.58 8.58 0 011.275 3.922c0 1.367-.258 2.23-.749 2.58a1.214 1.214 0 01-1.548-.05 2.415 2.415 0 01-.928-1.86 249.607 249.607 0 01-.232-6.14 66.3 66.3 0 00-3.664-4.462 55.464 55.464 0 01-4.155-5.244 11.117 11.117 0 01-1.447-2.89A7.841 7.841 0 010 49.188a4.075 4.075 0 011.523-3.186 11.376 11.376 0 014.078-2.065 27.282 27.282 0 015.678-1.058c.22-.17.476-.285.75-.337a2.45 2.45 0 01.617 0c.182.05.258.13.284.207.956-.051 1.912-.077 2.918-.051 1.275 0 2.55.05 3.843.156 1.208.16 2.007.58 2.396 1.249zm-11.719.88a24.379 24.379 0 00-6.321 1.108c-1.756.593-2.814 1.498-3.187 2.734-.156.49-.13 1.214.102 2.119a9.327 9.327 0 001.498 3.148 62.34 62.34 0 004.142 5.005 94.067 94.067 0 013.02 3.457c-.061-8.354.187-14.211.746-17.572zm6.194 41.596a8.48 8.48 0 011.832 3.304c.447 1.457.698 2.966.749 4.49a21.028 21.028 0 01-.36 4.903 17.567 17.567 0 01-1.472 4.492 9.598 9.598 0 01-2.632 3.289 5.979 5.979 0 01-3.823 1.274 4.023 4.023 0 01-1.549-.284c.08 1.702.182 3.148.338 4.337.156 1.188.334 1.934.567 2.269.076.105.025.207-.13.337a1.62 1.62 0 01-.67.258 1.996 1.996 0 01-.88-.054 1.265 1.265 0 01-.774-.618 2.51 2.51 0 01-.385-1.418c-.233-6.477-.182-11.407.102-14.841.284-3.435.672-5.624 1.137-6.63a1.74 1.74 0 01.638-.775c.24-.156.514-.253.8-.284.213-.028.43-.01.637.051.153.077.204.156.153.258-.638 1.163-1.11 3.33-1.342 6.554a94.662 94.662 0 00-.207 9.757c.37.144.766.214 1.163.207a3.905 3.905 0 003.043-1.523 11.895 11.895 0 002.065-3.894c.53-1.627.894-3.304 1.086-5.005a27.59 27.59 0 00.153-5.01 13.266 13.266 0 00-.749-3.87c-.41-1.004-.981-1.495-1.676-1.495-1.108 0-2.399.516-3.87 1.523a17.273 17.273 0 00-4.08 4.05 15.957 15.957 0 00-2.631 5.601 11.076 11.076 0 00.283 6.271c.026.153-.05.258-.283.319a1.979 1.979 0 01-.902.05 2.164 2.164 0 01-1.007-.436 1.913 1.913 0 01-.637-1.083 11.472 11.472 0 01.105-4.286 18.8 18.8 0 011.574-4.67 20.262 20.262 0 012.756-4.267 14.212 14.212 0 013.69-3.187 8.367 8.367 0 014.285-1.21 3.922 3.922 0 012.903 1.246z" fill="#fff"/><path d="M245.714 104.706a460.607 460.607 0 00-5.321-5.876l-5.353-5.853-5.394-5.821-5.417-5.796-5.448-5.78-5.481-5.757-5.502-5.736-2.326-2.425-3.011 2.177-7.571 5.477-7.542 5.496-7.519 5.528-2.868 2.122-6.767-10.027-9.808-14.338-9.899-14.297-9.989-14.248-5.098-7.256-5.035 7.329c-2.835 4.142-5.614 8.284-8.408 12.426-2.794 4.142-5.605 8.284-8.354 12.455l-8.285 12.484-4.556 6.93-3.406-3.263-8.536-8.112-4.18-3.98-3.442 4.22c-3.778 4.622-7.592 9.24-11.333 13.872l-5.637 6.956-2.75 3.431-2.596-3.02-5.78-6.672-2.383-2.753-2.23 2.574-7.154 8.284c-2.367 2.773-4.75 5.538-7.086 8.336l-7.035 8.373c-2.307 2.817-4.649 5.611-6.92 8.453 2.797-2.469 5.524-4.989 8.284-7.481l8.179-7.552c2.733-2.513 5.416-5.062 8.121-7.599l5.414-5.126 3.141 4.371 5.114 7.06 2.664 3.681 3.333-3.569 6.178-6.608 6.134-6.637c2.813-3.027 5.595-6.073 8.376-9.122l4.318 4.49 8.15 8.414 4.802 4.955 3.963-5.659 8.629-12.315 8.545-12.36c2.868-4.11 5.659-8.258 8.488-12.387l3.473-5.098 4.949 6.943 10.196 14.14 10.291 14.093 10.387 14.038 3.298 4.461 4.276-3.505 7.16-5.866 7.15-5.881 7.124-5.904 4.483-3.744 3.272 2.925 6.026 5.333 6.053 5.315 6.073 5.296 6.108 5.27 6.144 5.241c2.045 1.749 4.097 3.505 6.175 5.219 2.077 1.714 4.142 3.464 6.235 5.171-1.752-1.972-3.524-3.947-5.286-5.916z" fill="#fff"/><path d="M20.488 106.521l-.488-.414 30.193-35.648 10.872 12.516L84.05 53.473l15.358 14.612 36.304-51.76 42.246 60.981 28.336-19.694.191.198 44.136 46.245-.462.44-43.948-46.048-28.412 19.748-42.09-60.755-36.206 51.614L84.12 54.423 61.093 83.978 50.196 71.441l-29.708 35.08zm112.168 4.33a1.116 1.116 0 100-2.231 1.116 1.116 0 000 2.231zm107.377 0a1.115 1.115 0 100-2.23 1.115 1.115 0 000 2.23zm-50.661 0a1.115 1.115 0 100-2.23 1.115 1.115 0 000 2.23z" fill="#fff"/></svg>