<svg width="114" height="178" fill="none" xmlns="http://www.w3.org/2000/svg"><path d="M72.901 117.279h-33.76c0-6.692 2.04-13.303 6.117-19.832 4.077-6.53 8.888-11.997 14.433-16.404 13.7-11.1 20.55-21.22 20.55-30.36 0-5.714-1.958-10.12-5.872-13.222-3.914-3.102-9.377-4.652-16.39-4.652-13.7 0-23.404 7.263-29.112 21.79L0 37.952c4.893-11.916 12.64-21.22 23.24-27.913C33.841 3.346 45.828 0 59.202 0 73.88 0 86.682 4.326 97.61 12.977 108.537 21.465 114 33.217 114 48.234c0 6.692-1.468 13.058-4.403 19.098-2.773 5.876-6.198 10.936-10.275 15.18a270.516 270.516 0 01-11.987 11.752c-3.914 3.591-7.34 7.345-10.275 11.263-2.772 3.917-4.159 7.835-4.159 11.752zm3.915 39.909c0 5.713-2.04 10.61-6.116 14.691C66.622 175.96 61.73 178 56.022 178c-5.709 0-10.601-2.04-14.679-6.121-4.077-4.081-6.116-8.978-6.116-14.691 0-5.713 2.04-10.609 6.116-14.69 4.078-4.081 8.97-6.121 14.678-6.121 5.709 0 10.601 2.04 14.679 6.121 4.077 4.081 6.116 8.977 6.116 14.69z" fill="#F98A40"/></svg>