<svg width="109" height="50" fill="none" xmlns="http://www.w3.org/2000/svg"><path d="M6.643 12.684a.743.743 0 01-.277.145.877.877 0 01-.38.022.652.652 0 01-.371-.224 1.181 1.181 0 01-.24-.604 92.013 92.013 0 01-.46-3.672 12.695 12.695 0 00-1.771.09 77.653 77.653 0 01-1.098 3.268 1.313 1.313 0 01-.336.538.683.683 0 01-.404.156.745.745 0 01-.37-.09.632.632 0 01-.246-.201c-.056-.067-.056-.123-.023-.157.147-.123.36-.48.64-1.086.279-.605.582-1.354.907-2.237-.751.189-1.288.536-1.636 1.04-.034.033-.067.011-.112-.079a.837.837 0 01-.112-.369c-.02-.174.003-.351.067-.515a1.12 1.12 0 01.393-.525c.403-.291.985-.46 1.747-.505a59.197 59.197 0 001.424-4.59C4.378 1.613 4.512.617 4.4.092A.063.063 0 014.457 0c.07-.005.14.01.202.044a.72.72 0 01.213.202.773.773 0 01.123.38v.012c-.022.067-.011.683.033 1.858.045 1.174.236 2.943.572 5.294l.692.068c.123.011.18.066.19.138a.356.356 0 01-.067.257.295.295 0 01-.2.139 8.101 8.101 0 00-.528-.023c.19 1.106.37 2.05.553 2.799.184.75.326 1.22.449 1.365.033.042.01.093-.046.15zM4.844 7.725c-.145-1.49-.268-2.877-.347-4.146A67.268 67.268 0 013.39 7.653c.462.015.956.037 1.46.072h-.006zM9.592 19.13c.156.291.178.552.066.761-.213-.18-.56-.303-1.064-.369a15 15 0 00-1.66-.09c-.54 0-1.077.011-1.614.033-.18 1.053-.277 2.452-.292 4.198a64.256 64.256 0 00.123 4.859c.32.514.51 1.098.554 1.701 0 .593-.112.968-.325 1.12a.528.528 0 01-.673-.023 1.048 1.048 0 01-.402-.807 100.71 100.71 0 01-.101-2.663 28.754 28.754 0 00-1.592-1.935 24.066 24.066 0 01-1.804-2.274 4.822 4.822 0 01-.628-1.254A3.398 3.398 0 010 21.335a1.766 1.766 0 01.661-1.382 4.944 4.944 0 011.772-.895 11.88 11.88 0 012.465-.46.764.764 0 01.325-.146c.09-.01.18-.01.269 0 .079.022.112.057.123.09.415-.022.83-.033 1.267-.022.554 0 1.107.022 1.67.068.524.069.87.251 1.04.541zm-5.09.381c-.932.039-1.855.2-2.745.48-.762.258-1.222.65-1.383 1.187-.068.212-.057.526.044.919.129.492.35.955.65 1.365.562.755 1.162 1.48 1.799 2.171.46.505.897.997 1.312 1.5-.027-3.624.08-6.165.323-7.622zm2.69 18.042c.37.412.642.902.796 1.434a7.49 7.49 0 01.325 1.947 9.11 9.11 0 01-.156 2.127 7.62 7.62 0 01-.64 1.949 4.164 4.164 0 01-1.142 1.426c-.473.37-1.06.566-1.66.553a1.754 1.754 0 01-.673-.123c.034.737.079 1.365.146 1.88.068.516.146.84.247.984.033.046.01.09-.057.147a.707.707 0 01-.29.112.873.873 0 01-.382-.024.553.553 0 01-.337-.268 1.088 1.088 0 01-.167-.615c-.101-2.81-.079-4.947.044-6.437.123-1.49.292-2.44.494-2.876a.754.754 0 01.624-.459.664.664 0 01.277.022c.066.033.088.068.066.112-.276.505-.481 1.444-.582 2.843a41.005 41.005 0 00-.09 4.232c.16.062.332.093.505.09a1.7 1.7 0 001.321-.661 5.155 5.155 0 00.897-1.689c.23-.706.388-1.433.472-2.171.088-.72.11-1.448.066-2.173a5.75 5.75 0 00-.325-1.679c-.179-.435-.426-.648-.728-.648-.481 0-1.042.224-1.681.66a7.496 7.496 0 00-1.771 1.757 6.917 6.917 0 00-1.143 2.43 4.8 4.8 0 00.123 2.72c.011.066-.022.111-.123.138a.941.941 0 01-.829-.167.829.829 0 01-.277-.47 4.97 4.97 0 01.046-1.86 8.146 8.146 0 01.684-2.025 8.787 8.787 0 011.197-1.85 6.15 6.15 0 011.602-1.383 3.636 3.636 0 011.86-.525 1.704 1.704 0 011.261.54zm99.512 7.863a202.152 202.152 0 00-2.31-2.549l-2.325-2.538-2.342-2.526-2.353-2.513-2.366-2.507-2.38-2.498-2.39-2.487-1.01-1.052-1.307.944-3.288 2.375-3.275 2.384-3.265 2.398-1.245.92-2.94-4.349L69.65 25.2l-4.3-6.2-4.337-6.181-2.214-3.147-2.186 3.179c-1.232 1.796-2.438 3.593-3.652 5.39-1.213 1.796-2.434 3.593-3.628 5.402l-3.597 5.415-1.979 3.006-1.48-1.416-3.706-3.518-1.815-1.726-1.495 1.83c-1.64 2.005-3.297 4.007-4.921 6.017l-2.448 3.017-1.194 1.488-1.128-1.31-2.51-2.894-1.035-1.194-.968 1.117-3.107 3.593c-1.028 1.202-2.063 2.402-3.077 3.615l-3.055 3.632c-1.002 1.222-2.019 2.434-3.005 3.667 1.214-1.071 2.399-2.164 3.597-3.245l3.552-3.276c1.187-1.09 2.352-2.196 3.527-3.296l2.35-2.223 1.365 1.896 2.22 3.062 1.158 1.596 1.447-1.547 2.683-2.867 2.663-2.878a578.142 578.142 0 003.638-3.957l1.875 1.947 3.54 3.65 2.085 2.15 1.72-2.455 3.748-5.342 3.71-5.36c1.246-1.784 2.458-3.583 3.687-5.374l1.508-2.212 2.149 3.012 4.428 6.133 4.469 6.113 4.51 6.09 1.433 1.934 1.857-1.52 3.109-2.544 3.105-2.552 3.094-2.56 1.947-1.624L90.407 32l2.617 2.314 2.629 2.305 2.637 2.297 2.653 2.286 2.668 2.273c.888.76 1.779 1.52 2.681 2.264.902.744 1.799 1.502 2.708 2.243-.761-.855-1.53-1.712-2.296-2.566z" fill="#fff"/><path d="M8.897 46.203l-.212-.18 13.112-15.461 4.721 5.428L36.5 23.194l6.67 6.338L58.934 7.081l18.346 26.45 12.305-8.542.083.086 19.166 20.059-.2.19L89.55 25.352l-12.338 8.566L58.933 7.565 43.211 29.952l-6.68-6.346-10 12.82-4.733-5.439L8.897 46.203z" fill="#fff"/></svg>